<svg xmlns="http://www.w3.org/2000/svg" width="32" height="32" viewBox="0 0 32 32">
    <defs>
        <linearGradient id="cm6z6lb5la" x1="50%" x2="50%" y1="0%" y2="100%">
            <stop offset="0%" stop-color="#96AEFF"/>
            <stop offset="13.12%" stop-color="#93ACFC"/>
            <stop offset="32.312%" stop-color="#7797FE"/>
            <stop offset="60.548%" stop-color="#6388FE"/>
            <stop offset="100%" stop-color="#597EF7"/>
        </linearGradient>
    </defs>
    <g fill="none" fill-rule="evenodd">
        <g fill="url(#cm6z6lb5la)" fill-rule="nonzero" transform="translate(-742.000000, -2278.000000)">
            <g>
                <g>
                    <path d="M17.633 9.46V19.66h-6.879V9.46h6.879zm-9.058 0V19.66H1.707V9.46h6.868zM14.68 0c.272 0 .534.034.794.11 1.447.426 2.29 1.597 2.098 2.963-.121.871-.68 1.752-1.702 2.42l-.226.14h3.676v3.073H0V5.633h3.906c-1.094-.683-1.732-1.587-1.858-2.51C1.863 1.757 2.7.589 4.147.16c.25-.074.522-.12.793-.12 2.432 0 3.828 3.062 4.433 4.55l.056.139h.753C10.704 3.324 12.17 0 14.68 0zM4.94 1.968c-.09 0-.17.01-.25.04-.372.08-.77.342-.714.844.075.673 1.105 1.687 3.334 1.817-.623-1.315-1.516-2.7-2.37-2.7zm9.752 0c-.853 0-1.747 1.386-2.37 2.701 2.23-.13 3.26-1.144 3.334-1.817.056-.502-.341-.763-.713-.844-.08-.03-.16-.04-.25-.04z"
                          transform="translate(742.000000, 2278.000000) translate(5.714286, 5.857143)"/>
                </g>
            </g>
        </g>
    </g>
</svg>
