<svg xmlns="http://www.w3.org/2000/svg" width="25" height="25" viewBox="0 0 25 25">
    <g fill="none" fill-rule="evenodd">
        <g>
            <g>
                <g>
                    <g transform="translate(-835 -499) translate(827 431) translate(0 60) translate(8 8)">
                        <circle cx="12.5" cy="12.5" r="12.5" fill="#FFF" opacity=".7"/>
                        <g fill="#5A7EF8">
                            <path d="M7 3.5v1.75H3.478L3.5 3.5c0-.966-.093-1.75.874-1.75h1.75c.967 0 .875.784.875 1.75zm-.875 7.875h-1.75l.601-1.805c-.346-.116-.601-.434-.601-.82 0-.484.391-.875.875-.875s.875.391.875.875c0 .386-.255.704-.602.82l.602 1.805zM8.75 5.25V2.625C8.75 1.175 7.575 0 6.125 0h-1.75C2.925 0 1.75 1.174 1.75 2.625V5.25C.875 5.25 0 6.034 0 7v5.252C0 13.217.785 14 1.752 14h6.997c.967 0 1.751-.783 1.751-1.748V7c0-.966-.875-1.75-1.75-1.75z" transform="translate(7.212 4.987)"/>
                        </g>
                    </g>
                </g>
            </g>
        </g>
    </g>
</svg>
