<svg xmlns="http://www.w3.org/2000/svg" width="29" height="28" viewBox="0 0 29 28">
    <g fill="none" fill-rule="evenodd">
        <g>
            <g>
                <g>
                    <g>
                        <g>
                            <path fill="#FFF" fill-rule="nonzero" d="M15.354 1.4c5.943 0 10.855 4.585 11.635 10.534.617.497 1.011 1.258 1.011 2.111v2.71c0 1.37-1.017 2.503-2.338 2.684-1.626 3.086-4.5 5.362-7.918 6.095.004.035.006.071.006.108 0 .579-.485 1.048-1.083 1.048H14.09c-.387 0-.745-.2-.939-.524-.193-.324-.193-.724 0-1.048.194-.325.552-.524.939-.524h2.577c.274 0 .524.098.715.26 3.16-.614 5.85-2.64 7.435-5.43-1.271-.225-2.236-1.334-2.236-2.67v-2.709c0-1.496 1.213-2.71 2.71-2.71l.076.003c-.992-4.848-5.113-8.464-10.013-8.464-5.402 0-9.856 4.395-10.215 9.99.174.352.274.748.28 1.166v2.74c-.024 1.495-1.23 2.695-2.71 2.695-1.479 0-2.685-1.2-2.709-2.695v-2.74c.024-1.495 1.23-2.695 2.71-2.695.378 0 .74.08 1.067.221C4.71 5.792 9.537 1.4 15.354 1.4zm-2.628 8.194c.569 0 1.08.52 1.08 1.236v3.056c0 .65-.454 1.236-1.08 1.236-.626 0-1.08-.585-1.08-1.236V10.83c0-.65.511-1.236 1.08-1.236zm5.064-.065c.57 0 1.081.52 1.081 1.236v3.056c0 .716-.512 1.236-1.081 1.236-.57 0-1.082-.52-1.082-1.236v-3.056c0-.65.512-1.236 1.082-1.236z" transform="translate(-914 -720) translate(809 259) translate(0 88) translate(.491 333.07) translate(104.509 39.93)"/>
                            <path d="M0 0H28V28H0z" transform="translate(-914 -720) translate(809 259) translate(0 88) translate(.491 333.07) translate(104.509 39.93)"/>
                        </g>
                    </g>
                </g>
            </g>
        </g>
    </g>
</svg>
