<svg xmlns="http://www.w3.org/2000/svg" width="23" height="19" viewBox="0 0 23 19">
    <path fill="#FFF" d="M11.829.156L5.914 3.805H2.957C1.314 3.805 0 5.075 0 6.661v5.712c0 1.587 1.314 2.856 2.957 2.856h2.957l5.915 3.65c.821.317 1.478 0 1.478-.794V.95c.082-.793-.657-1.19-1.478-.793zm5.01 4.601c-.164-.159-.328-.238-.493-.238-.164 0-.41.08-.492.159-.329.238-.329.714 0 1.031.164.159.41.476.657.952.41.793.657 1.745.657 2.856 0 1.11-.247 2.063-.657 2.856-.247.476-.493.793-.657.952-.247.159-.247.317-.247.476 0 .159.082.397.247.476.164.159.328.238.492.159.165 0 .411-.08.493-.238.247-.238.575-.635.904-1.27.493-1.031.821-2.142.821-3.49 0-1.349-.328-2.46-.821-3.491-.329-.555-.657-.952-.904-1.19zm4.6-.873c-.575-.952-1.232-1.666-1.643-1.983-.164-.159-.328-.159-.575-.159-.164 0-.41.08-.492.238-.165.159-.165.318-.165.556 0 .158.082.396.247.476.082.079.246.158.41.396.329.397.658.794.904 1.27.821 1.428 1.396 3.094 1.396 4.918 0 1.825-.492 3.491-1.396 4.919-.329.476-.657.952-.904 1.27-.164.237-.328.317-.41.396-.329.238-.329.714-.082 1.031.246.318.739.318 1.067.08.411-.397 1.068-1.032 1.643-1.984.986-1.586 1.561-3.49 1.561-5.632 0-2.301-.575-4.205-1.56-5.792z"/>
</svg>
