<svg xmlns="http://www.w3.org/2000/svg" width="32" height="32" viewBox="0 0 32 32">
  <defs>
    <linearGradient id="gcd6f4pjha" x1="50%" x2="50%" y1="0%" y2="100%">
      <stop offset="0%" stop-color="#96AEFF"/>
      <stop offset="13.12%" stop-color="#93ACFC"/>
      <stop offset="32.312%" stop-color="#7797FE"/>
      <stop offset="60.548%" stop-color="#6388FE"/>
      <stop offset="100%" stop-color="#597EF7"/>
    </linearGradient>
  </defs>
  <g fill="none" fill-rule="evenodd">
    <g fill="url(#gcd6f4pjha)" fill-rule="nonzero" transform="translate(-238.000000, -2350.000000)">
      <g>
        <g>
          <g>
            <path
              d="M7.925.168c4.554-.94 8.975 2.157 9.875 6.92h.025c.886 0 1.604.75 1.604 1.676v3.392c-.002.677-.392 1.287-.99 1.546l-.05.26c-.76 3.625-3.85 5.97-7.679 6.29-.176.574-.683.969-1.26.98-.748.017-1.365-.604-1.38-1.385-.015-.781.578-1.427 1.325-1.443l.137.01c.495.065.924.404 1.116.894l.28-.027c3.264-.362 5.864-2.367 6.521-5.487-.413-.089-.777-.342-1.014-.708l-.101.306c-.606 1.713-1.782 3.146-3.319 4.03h-.163c-.014-.034-.014-.072 0-.105l-.008-.046.008-.046.184-.188c1.415-1.504 1.5-2.964 1.332-5.051-.235-1.637-.85-3.188-1.791-4.519l-.038-.041c-.028-.023-.063-.036-.1-.038l-.047.007c-.06.018-.106.07-.116.138l-.025.236c-.043.314-.123.622-.238.916l-.074.166c-.343.702-.99 1.194-1.742 1.314l-.815.157c-1.08.207-2.147.417-3.269.669-.938.244-1.552 1.184-1.428 2.187l.057.308c.315 1.53 1.088 2.918 2.21 3.962h-.075c-.088 0-.088.066-.088.066-.028.04-.053.085-.075.13l-.266-.128c-1.669-.849-2.97-2.333-3.63-4.155l-.106.127c-.299.32-.713.5-1.146.489l-.144-.008C.618 13.886-.006 13.174 0 12.313V9.04c-.004-.784.52-1.463 1.253-1.624l.048-.286C1.945 3.625 4.559.864 7.925.169zm4.553 13.585c.055-.052.14-.052.196 0l.038.024c.045.038.062.101.04.16l-.06.168c-.353.882-1.161 1.51-2.114 1.626h-.314v-.026c-.921-.015-1.766-.513-2.227-1.31l-.025-.04c-.025-.058-.01-.126.038-.17.062-.054.156-.048.21.013l.179.11c.427.236.916.345 1.406.31l.222.01c.149.002.297 0 .446-.01l.205-.032c1.39-.236 1.76-.833 1.76-.833zm-1.736-11.91c-3.84-.685-7.482 2.015-8.136 6.03l.175.183C3.513 5.977 5.08 4.34 7.068 3.574c3.746-1.442 7.9.565 9.28 4.482v.08c.045-.093.1-.181.162-.263l-.05-.27c-.59-2.957-2.852-5.25-5.718-5.76z"
              transform="translate(238.000000, 2350.000000) translate(4.571429, 5.571429) translate(0.727273, 0.038961)"/>
          </g>
        </g>
      </g>
    </g>
  </g>
</svg>
