<svg xmlns="http://www.w3.org/2000/svg" width="186" height="56" viewBox="0 0 186 56">
    <path fill="#FFF" fill-rule="nonzero" d="M18.613 41.492c.75 0 1.401.052 2.177.209 1.846.364 4.275 1.232 4.442 1.597a23.8 23.8 0 0 0-2.34-.121c-6.499 0-12.002 4.914-11.313 9.063.3 1.806 1.73 2.674 4.086 2.674 2.32 0 5.313-.902 7.409-2.257 3-1.927 4.543-5.105 4.073-7.935-.187-1.129-.46-1.476-.571-1.72 1.224.279 3.076.678 3.405 2.658.539 3.247-2.304 6.337-6.42 8.213-2.654 1.215-5.964 1.927-8.927 1.927-4.356 0-6.979-1.39-7.414-4.011-.707-4.254 4.36-10.297 11.393-10.297zm28.479-.472c.9 0 1.651.137 2.253.418.663.309 1.074.77 1.181 1.371.121.68-.23 1.372-.983 2.083-.61.576-1.472 1.157-2.586 1.746l-.43.221-1.552.79c.847.1 1.606.276 2.278.53 1.188.452 1.892 1.078 2.04 1.908.146.823-.237 1.604-1.08 2.319-.78.661-1.895 1.217-3.344 1.676-1.592.507-3.495.76-5.708.76-1.867 0-3.227-.162-4.1-.499l-.87-.336 1.932-1.234.23.099c.457.197 1.022.36 1.694.488.675.128 1.358.192 2.051.192 1.228 0 2.335-.162 3.323-.485.972-.318 1.705-.732 2.206-1.237.456-.46.623-.91.537-1.39-.05-.282-.21-.526-.503-.746-.33-.248-.783-.447-1.363-.591-.598-.149-1.29-.224-2.075-.224-.302 0-.651.019-1.048.058l-1.008.113.4-1.395.26-.069c1.179-.31 2.314-.71 3.406-1.201 1.085-.487 1.974-.994 2.67-1.52.834-.625 1.17-1.14 1.102-1.517-.034-.191-.194-.364-.536-.522-.403-.186-.926-.283-1.57-.283-1.21 0-2.734.351-4.565 1.06-1.158.453-2.082.883-2.767 1.284a13.274 13.274 0 0 1-.586 2.234 22.527 22.527 0 0 1-1.087 2.554c-.44.889-.89 1.698-1.357 2.433l-.136.209c-.52.775-1.063 1.366-1.633 1.77-.644.457-1.333.69-2.057.69-1.173 0-1.929-.493-2.1-1.454a2.612 2.612 0 0 1-.034-.567l.06-1.453.805 1.212c.035.052.14.094.36.094.275-.004.519-.075.74-.213.253-.157.576-.448.96-.869l.22-.251.24-.293.126-.161.4-.532c.17-.233.329-.46.475-.68l.225-.35c.11-.18.225-.371.342-.576l.374-.676.187-.357.184-.38c.164-.348.302-.67.415-.967-.749.43-1.46.92-2.138 1.47-.275.223-.533.447-.774.673l-.676-.658.092-.104c.99-1.065 2.173-1.991 3.545-2.778.044-.303.08-.65.11-1.03l.036-.798.013-.57v-.382l3.105-.66-.073.862-.024.463a2.801 2.801 0 0 1-.024.25l-.034.195c.83-.372 1.663-.71 2.5-1.013a23.125 23.125 0 0 1 3.084-.904c.946-.2 1.832-.3 2.66-.3zm21.854 1.05c1.062 0 1.913.35 2.534 1.072.58.681.881 1.562.881 2.654 0 1.082-.3 1.953-.881 2.634-.621.711-1.472 1.072-2.544 1.072s-1.913-.36-2.534-1.072c-.59-.68-.881-1.562-.881-2.634 0-1.082.29-1.963.881-2.644.621-.721 1.462-1.082 2.544-1.082zm26.835.14l4.047 5.82h.03v-5.82h.82v7.152h-.84l-4.067-5.88h-.03v5.88h-.82V42.21h.86zm25.696 0c.71 0 1.272.16 1.682.491.42.34.641.842.641 1.503 0 .4-.11.75-.33 1.061-.24.32-.561.521-.972.621v.02c.681.15 1.062.581 1.142 1.302l.11 1.102c.04.44.17.791.38 1.052h-.89c-.16-.24-.261-.551-.291-.952l-.09-.951c-.04-.421-.19-.732-.451-.912-.24-.18-.58-.26-1.032-.26h-2.163v3.075h-.821V42.21h3.085zm33.213 0l2.665 6.1h.03l2.654-6.1h1.021v7.152h-.821v-5.69h-.03l-2.474 5.69h-.741l-2.474-5.69h-.03v5.69h-.821V42.21h1.021zm14.11 0v.712h-4.246v2.393h4.006v.711h-4.006v2.624h4.417v.712h-5.238V42.21h5.068zm3.405 0l4.046 5.82h.03v-5.82h.821v7.152h-.841l-4.066-5.88h-.03v5.88h-.822V42.21h.862zm-35.338 0l2.815 7.152h-.892l-.76-2.004h-3.286l-.761 2.004h-.881l2.814-7.151h.951zm-58.939 0c.661 0 1.192.16 1.583.481.38.32.57.761.57 1.322 0 .4-.11.751-.32 1.042-.22.26-.51.45-.871.57.47.08.831.281 1.091.582.26.3.401.68.401 1.161 0 .702-.25 1.222-.741 1.563-.42.28-1.002.43-1.733.43h-3.175v-7.15h3.195zm14.45 0v.712H88.13v2.393h4.006v.711h-4.006v2.624h4.417v.712H87.31V42.21h5.068zm92.705 0v.712h-2.524v6.44h-.811v-6.44h-2.524v-.711h5.859zm-76.423 0v.712h-2.524v6.44h-.811v-6.44H102.8v-.711h5.859zm7.19 0v.712h-4.247v2.393h4.006v.711h-4.006v2.624h4.417v.712h-5.238V42.21h5.067zm15.85 0v.712h-2.523v6.44h-.811v-6.44h-2.524v-.711h5.859zm10.805 0v7.152h-.812V42.21h.812zm3.594 0l4.046 5.82h.03v-5.82h.821v7.152h-.841l-4.066-5.88h-.03v5.88h-.822V42.21h.862zm-77.153.591c-.821 0-1.472.28-1.943.852-.44.54-.661 1.252-.661 2.143 0 .881.22 1.593.66 2.133.462.561 1.113.842 1.934.842s1.472-.28 1.933-.822c.44-.54.67-1.252.67-2.153 0-.911-.23-1.632-.67-2.173-.46-.551-1.102-.822-1.923-.822zm8.892 3.215h-2.283v2.654h2.283c.5 0 .892-.1 1.192-.28.35-.22.53-.57.53-1.032 0-.46-.16-.8-.46-1.021-.29-.22-.711-.32-1.262-.32zm58.579-2.924h-.04l-1.372 3.575h2.764l-1.352-3.575zm-15.04-.17h-2.164v2.654h2.163c.521 0 .932-.13 1.212-.37.25-.231.38-.552.38-.972 0-.441-.13-.772-.37-.982-.26-.22-.67-.33-1.222-.33zm-43.639-.02h-2.183v2.433h2.173c.5 0 .881-.11 1.142-.31.26-.21.4-.52.4-.932 0-.4-.13-.7-.39-.9-.26-.201-.641-.291-1.142-.291zM29.154 8.346c2.587 0 11.587 10.314 13.566 18.71 4.734-4.142 9.833-5.395 10.238-5.395.535 0 .939.43.939 1 0 .254-.196.624-.52 1.235-1.007 1.903-3.081 5.82-3.165 13.222l-.003.467.003.113c.01.323.03.925-.316 1.281-.173.178-.408.269-.7.269-.393 0-.697-.272-.757-.675a21.546 21.546 0 0 1-.223-3.11c0-3.54.838-7.248 2.425-10.75-3.895 1.545-5.938 3.494-7.176 4.674-.792.755-1.315 1.255-1.87 1.255-.523 0-.891-.342-.937-.87-.55-6.274-9.462-18.515-11.886-18.515-.053 0-.14.051-.286.146l-.095.062-.126.081c-4.398 2.824-10.528 12.772-10.933 17.742-.06.73-.792 1.448-1.476 1.448-.425 0-.82-.39-1.474-1.038-1.097-1.084-2.904-2.872-6.546-4.482 1.4 3.303 2.138 6.74 2.138 9.97 0 .604-.027 1.206-.078 1.793 5.21-1.305 10.932-1.966 17.012-1.966 3.286 0 19.46.925 19.46 2.758 0 .485-.403 1.029-.942 1.029-.682 0-2.354-.164-4.47-.37-4.078-.4-9.663-.946-14.001-.946-9.584 0-15.491 1.673-17.715 2.302-.626.178-.971.276-1.147.276-.58 0-.968-.417-.968-1.037 0-.345.122-.706.345-1.023-.06-8.016-2.092-11.876-3.07-13.733-.319-.604-.51-.968-.51-1.243 0-.753.735-1.493 1.484-1.493.04 0 5.097.98 9.98 5.27 2.983-10.602 12.394-18.457 13.8-18.457zm41.262 6.814v.973l.344-.17c1.083-.533 2.19-.803 3.289-.803h6.377v2.512H74.02a7.89 7.89 0 0 0-1.767.32c-.56.171-1.134.4-1.704.68l-.133.066v1.608l2.348-1.022 1.016 1.196c.362.428.721.873 1.066 1.323l.239.31.166-.353c.232-.493.464-.98.696-1.464.203-.424.402-.865.592-1.313l3.398.905a81.306 81.306 0 0 1-1.279 2.333c-.483.848-.986 1.725-1.508 2.633l-.072.124.077.122a58.2 58.2 0 0 1 1.459 2.46c.46.822.942 1.73 1.43 2.702l-2.936 2.291a56.676 56.676 0 0 0-.84-1.91c-.33-.71-.672-1.42-1.02-2.108l-.187-.372-.226.35a61.288 61.288 0 0 1-1.445 2.138c-.483.684-.992 1.398-1.524 2.142l-1.45-.873v1.903h8.994v.612l.409-.417c.898-.915 1.616-1.8 2.135-2.63.52-.83.924-1.67 1.2-2.492.275-.823.454-1.683.533-2.555.078-.861.117-1.81.117-2.818v-1.834h4.6v3.55c0 .949.025 1.795.074 2.517.05.755.257 1.438.614 2.03.356.592.914 1.127 1.66 1.59.253.157 2.386 1.467 3.904 2.004-1.328 1.963-2.534 2.958-3.586 2.959-.34 0-.659-.1-.978-.306a8.204 8.204 0 0 1-1.518-1.29 5.89 5.89 0 0 1-.935-1.365 6.81 6.81 0 0 1-.504-1.444l-.127-.56-.307.485c-.546.864-1.293 1.713-2.219 2.523-.898.785-2.072 1.574-3.49 2.345l-1.582-1.47v1.019H68.391c-.715 0-1.31-.244-1.82-.745-.508-.5-.756-1.108-.756-1.858V17.821c0-.75.249-1.369.76-1.89a2.466 2.466 0 0 1 1.845-.771h1.996zm63.427-.82a55.677 55.677 0 0 1-.702 3.332l-.071.295h2.16c.657 0 1.204.224 1.675.686.47.46.698 1.012.698 1.687v.29a20.008 20.008 0 0 1-.86 4.659 20.428 20.428 0 0 1-2.008 4.474l-.125.209.211.12c.668.382 1.35.781 2.027 1.187.583.35 1.166.72 1.734 1.098l-3.407 2.99c-.425-.392-.831-.768-1.219-1.13a29.369 29.369 0 0 0-1.33-1.17l-.182-.15-.152.18a19.145 19.145 0 0 1-1.79 1.833 23.28 23.28 0 0 1-1.897 1.524l-2.016-1.866a39.075 39.075 0 0 0 1.528-1.474 18.701 18.701 0 0 0 1.705-2.014l.142-.191-.192-.142c-.366-.27-.725-.546-1.066-.82-.348-.281-.716-.577-1.103-.886a2.3 2.3 0 0 1-.762-1.132 2.253 2.253 0 0 1 0-1.368 52.815 52.815 0 0 0 1.37-5.89l.05-.28h-1.41v-2.453h1.822l.032-.2c.097-.602.185-1.205.262-1.792.069-.524.137-1.059.206-1.606h4.67zm19.804 9.285v2.424h-5.31v1.486c0 .09-.004.178-.013.266a3.24 3.24 0 0 0-.015.315v.238h5.919v2.454h-6.179l.656.437c.659.439 1.495.782 2.485 1.02.935.224 3.246.447 4.804.553-1.144 2.152-2.453 3.242-3.895 3.242-.25 0-.508-.032-.768-.096a7.818 7.818 0 0 1-1.923-.936 6.588 6.588 0 0 1-1.372-1.246 7.303 7.303 0 0 1-.928-1.447l-.164-.341-.237.296c-.901 1.127-2.089 2.047-3.529 2.733-1.046.5-2.16.908-3.31 1.216a1.33 1.33 0 0 1-.375.056c-.728 0-1.494-.639-2.282-1.9.315-.109.662-.226 1.04-.352a11.717 11.717 0 0 0 1.525-.637 10.406 10.406 0 0 0 1.5-.92c.49-.36.93-.796 1.31-1.296l.291-.382h-4.797v-2.454h5.628v-.238c0-.089.005-.178.014-.267.01-.105.015-.209.015-.314V26.05h-5.048v-2.424h14.958zm29.445-9.317c-.324 2.004-1.138 2.994-2.482 3.023a28.53 28.53 0 0 0-.569-.008h-.74c-2.083.007-6.084.073-11.907.196-.56.04-1.128.12-1.697.237-.588.122-1.182.377-1.765.76l-.108.07v5.532h6.309v-4.73h4.6v4.73h9.836v2.425h-9.835v5.78c0 .972-.117 1.779-.348 2.397-.218.585-.652.99-1.324 1.238-.5.184-1.168.277-1.988.277-.327 0-.683-.015-1.06-.045-.993-.077-2.242-.264-3.712-.556-.66-.214-.886-1.158-.673-2.806.644.104 1.215.217 1.699.335a9.138 9.138 0 0 0 1.431.253c.073.006.143.009.21.009.333 0 .6-.072.791-.214.251-.185.373-.513.373-1.004v-5.664H161.8c-.735 0-1.334-.243-1.834-.743s-.742-1.1-.742-1.833V17.67c0-.354.067-.694.199-1.012.132-.316.32-.598.558-.836.238-.238.515-.426.825-.56.307-.13.641-.197.994-.197h2.024v.96l.345-.173a7.637 7.637 0 0 1 1.59-.591 7.125 7.125 0 0 1 1.698-.196h10.445c.41 0 .876-.02 1.382-.059a28.67 28.67 0 0 0 1.537-.161c.52-.069 1.02-.163 1.491-.28.225-.057.487-.143.78-.258zm-70.88.061l.755 1.886h7.327c.734 0 1.333.247 1.833.756.5.51.744 1.114.744 1.849v3.157h-1.422v1.624h-9.488v3.117h9.284v2.454h-9.284v4.597h4.47l-1.692-1.823c-.305-.329-.608-.658-.908-.987l2.351-1.226c.306.139.61.29.909.453.337.183.708.39 1.112.621.399.227.843.503 1.322.819.4.263.861.563 1.376.892l-1.894 1.25h4.618v2.425H96.99v-1.226a1.2 1.2 0 0 1 1.199-1.198h9.172v-4.597h-8.153v-2.454h8.153v-3.117h-8.705v-1.624h-1.595V18.86c0-.735.243-1.34.744-1.85.5-.508 1.098-.755 1.832-.755h2.024v.934l.347-.177a6.93 6.93 0 0 1 2.918-.757h3.477l-.754-1.886h4.563zm66.356 13.487c.777.544 3.223 2.365 3.85 2.89l.506.433.323.278c.448.382.527 1.514-1.565 4.72-.653-.822-2.551-3.201-3.99-5.002l-1.564-1.961 2.44-1.358zm-14.78-.72l4.103 1.908c-.341.414-.74.866-1.188 1.346a24.878 24.878 0 0 1-4.354 3.664c-.116.078-.175.12-.217.152l-.029.021c-.095.073-.128.098-1.314.79-.33.193-.68.29-1.043.29-.703 0-1.492-.361-2.347-1.076.672-.62 1.265-1.18 1.766-1.664a29.837 29.837 0 0 0 1.55-1.609c.474-.532.965-1.116 1.46-1.736.463-.581 1.005-1.282 1.613-2.086zm-135.84 4.652c.088 0 8.817.148 8.817 1.211 0 .307-.278.65-.65.65a9.49 9.49 0 0 1-.289-.018 103.381 103.381 0 0 0-7.568-.303c-4.522 0-7.18.377-8.77.603-.634.09-1.094.155-1.413.155-.502 0-.758-.194-.758-.577 0-.339.27-.751.706-.826 3.509-.602 6.756-.895 9.925-.895zm42.037-11.675v10.082l.443-.738a103.362 103.362 0 0 0 2.559-4.508l.062-.116-.065-.114a32.783 32.783 0 0 0-1.242-2.002c-.436-.649-.876-1.302-1.321-1.96l-.436-.644zm63.827.278h-1.344l-.05.173a60.16 60.16 0 0 1-1.17 3.641 25.842 25.842 0 0 1-1.28 3.019l-.107.21 1.703.89.108-.22c.506-1.032.95-2.171 1.32-3.386.37-1.219.637-2.586.792-4.063l.028-.264zm-104.836-6.07c.172 0 .333.071.465.206 2.294 1.797 3.62 4.403 3.62 7.133 0 2.889-1.487 5.303-3.618 5.88a.873.873 0 0 1-.415.111c-.039 0-3.84-.515-3.84-5.705 0-2.976 1.393-6.112 3.31-7.455a.845.845 0 0 1 .478-.17zm-.287 2.758c-.787 1.396-1.185 2.833-1.185 4.277 0 1.846.776 3.079 1.705 4.457.721-.952 1.073-2.012 1.073-3.236 0-1.788-.748-3.69-1.593-5.498zm53.294-2.473l4.448.214-.167.728c-.076.33-.172.682-.286 1.049l-.096.309h5.923c.343 0 .655.079.926.234.28.16.514.367.696.615.182.248.31.536.38.857.068.313.05.64-.053.973-.169.419-.327.846-.463 1.253-.133.398-.292.81-.471 1.224-.181.418-.395.883-.635 1.382-.217.453-.49.957-.811 1.5l-2.371-.63a36.37 36.37 0 0 0 .685-2.473c.174-.749.33-1.468.465-2.138l.058-.285h-5.426l-.067.128c-.154.294-.312.588-.476.882-.16.29-.349.605-.559.935l-.097.154-.216.311c-.327.47-.681.961-1.054 1.459-.334.444-.699.907-1.087 1.377l-2.032-1.39c.331-.7.62-1.348.86-1.929a34.9 34.9 0 0 0 .673-1.743 20.24 20.24 0 0 0 .455-1.453c.116-.436.223-.852.32-1.248l.007-.028v-.059l.022-.09c.097-.397.181-.785.25-1.153.056-.302.123-.626.2-.965zM44.38 19.378c1.32 0 2.108 3.828 2.108 3.866 0 .375-.348.73-.716.73a.549.549 0 0 1-.45-.237c-.794-1.096-1.103-1.75-1.252-2.066l-.044-.093-.072.062c-.376.325-1.077.93-1.576.93-.252 0-.52-.17-.52-.542 0-.854 1.413-2.65 2.522-2.65zm-29.578-1.38c1.138 0 2.052 2.118 2.052 2.386 0 .431-.371.839-.763.839-.29 0-1.098-.46-1.573-.839-.636 1.429-1.276 2.211-1.813 2.211-.279 0-.481-.225-.481-.535 0-.32 1.098-4.061 2.578-4.061zm131.387-3.661c.068 0 .135 0 .203.003h5.173c.734 0 1.333.243 1.833.743s.742 1.1.742 1.833v2.902c0 .734-.242 1.333-.742 1.833s-1.1.743-1.833.743H140.77c-.734 0-1.34-.244-1.849-.744-.509-.5-.756-1.1-.756-1.832v-2.902c0-.733.247-1.332.756-1.832.51-.5 1.115-.744 1.85-.744h1.995v.96l.345-.172a8.175 8.175 0 0 1 1.607-.607 5.865 5.865 0 0 1 1.47-.184zm-27.92 4.372h-13.352c-.542 0-1.082.076-1.604.227a7.262 7.262 0 0 0-1.53.645l-.122.068v1.568h16.609v-2.508zM56.46 15.63c1.798 1.51.164 4.4-1.93 4.4-1.108 0-1.961-.884-2.117-1.983-.917-1.331 1.811-4.299 4.047-2.417zm-52.23 0c1.798 1.51.164 4.4-1.93 4.4-1.108 0-1.961-.884-2.117-1.983-.917-1.331 1.811-4.299 4.047-2.417zm145.31 1.134h-3.184a7.999 7.999 0 0 0-1.75.314c-.56.168-1.134.392-1.703.667l-.135.065v2.158h6.773v-3.204zM31.755.81c2.397 2.014.218 5.867-2.574 5.867-1.477 0-2.614-1.178-2.822-2.644-1.222-1.775 2.414-5.731 5.396-3.223z"/>
</svg>
