<?xml version="1.0" encoding="UTF-8"?>
<svg width="130px" height="39px" viewBox="0 0 130 39" version="1.1" xmlns="http://www.w3.org/2000/svg" xmlns:xlink="http://www.w3.org/1999/xlink">
    <!-- Generator: Sketch 57.1 (83088) - https://sketch.com -->
    <title>Group</title>
    <desc>Created with Sketch.</desc>
    <g id="页面-1" stroke="none" stroke-width="1" fill="none" fill-rule="evenodd">
        <g id="画板" transform="translate(-239.000000, -217.000000)" fill="#597EF7">
            <g id="Group" transform="translate(239.000000, 217.000000)">
                <path d="M20.3767457,5.83333333 C22.1843689,5.83333333 28.4748783,13.0420372 29.8582136,18.9098713 C33.1669755,16.0148449 36.7304081,15.139684 37.0134297,15.139684 C37.3878589,15.139684 37.6699029,15.4395574 37.6699029,15.8377581 C37.6699029,16.0158233 37.5330358,16.2741156 37.3067163,16.7016677 C36.5876753,18.0591699 35.0924023,20.8842422 35.0924023,26.2692458 L35.0924023,26.2692458 L35.0943575,26.3480054 C35.1012009,26.5735219 35.1148876,26.9942254 34.8734149,27.2437123 C34.7526786,27.3679665 34.5884381,27.431072 34.3841151,27.431072 C34.1094032,27.431072 33.8972593,27.2412663 33.8552215,26.9594929 C33.7520824,26.2545701 33.6992908,25.5237202 33.6992908,24.7865109 C33.6992908,22.3116986 34.2848864,19.7204592 35.3944875,17.2725524 C32.67181,18.3521947 31.2439929,19.7145889 30.3787973,20.5393632 C29.8249744,21.0671993 29.4593438,21.4164809 29.0722054,21.4164809 C28.7060859,21.4164809 28.4489713,21.177267 28.4167098,20.8079286 C28.0325043,16.4233185 21.8035851,7.86787456 20.109366,7.86787456 C20.065373,7.86787456 19.9866745,7.91923951 19.842964,8.01316399 L19.842964,8.01316399 L19.754978,8.06991003 C16.6813342,10.0433025 12.3969053,16.99616 12.1138837,20.4698983 C12.071846,20.9806126 11.5605496,21.4820324 11.0824924,21.4820324 C10.7848065,21.4820324 10.5086283,21.2090644 10.0515899,20.7565636 C9.28513421,19.9988083 8.02204646,18.749417 5.47680734,17.62428 C6.45491825,19.9327676 6.97110271,22.3351797 6.97110271,24.5923024 C6.97110271,25.0144734 6.95252789,25.4351768 6.91684469,25.8456072 C10.5579982,24.9332679 14.5574502,24.4714725 18.8066846,24.4714725 C21.1036077,24.4714725 32.4073632,25.1181817 32.4073632,26.3988811 C32.4073632,26.738379 32.125808,27.1179904 31.7494235,27.1179904 C31.2723439,27.1179904 30.1040855,27.00352 28.6249433,26.8592089 C25.7746861,26.5803706 21.8715299,26.1988024 18.8394349,26.1988024 C12.1412572,26.1988024 8.01227024,27.3679665 6.45785111,27.8077483 C6.02036523,27.9320026 5.77938138,28 5.65668981,28 C5.25146545,28 4.97968651,27.7089319 4.97968651,27.2755096 C4.97968651,27.0343389 5.06522844,26.7824061 5.22115916,26.560803 C5.17912141,20.9576207 3.75863651,18.260227 3.07478986,16.9624059 C2.85238083,16.540235 2.7184466,16.285367 2.7184466,16.0936045 C2.7184466,15.567236 3.23267582,15.0501622 3.75570364,15.0501622 C3.7845435,15.0501622 7.31815856,15.7355174 10.7315261,18.7332737 C12.8163052,11.3230236 19.3937467,5.83333333 20.3767457,5.83333333 Z M25.6957929,23.0639505 C25.6957929,23.2785456 25.5016252,23.518601 25.2415792,23.518601 C25.2282054,23.518601 25.1588598,23.5140545 25.0399816,23.5054162 C23.1443701,23.3649291 21.3646648,23.293549 19.7503983,23.293549 C16.5897249,23.293549 14.7317581,23.5572463 13.6212379,23.7154647 C13.177426,23.7782064 12.8559596,23.8236715 12.6330631,23.8236715 C12.2818771,23.8236715 12.1035599,23.6881857 12.1035599,23.4203965 C12.1035599,23.1835236 12.2917836,22.8952752 12.596409,22.8429904 C15.0492619,22.421984 17.318349,22.2173913 19.5334456,22.2173913 C19.5953613,22.2173913 25.6957929,22.320597 25.6957929,23.0639505 Z M20.251951,10.0096618 C20.3725383,10.0096618 20.4846135,10.0591079 20.5773002,10.153594 C22.1804019,11.4093286 23.1067961,13.2305111 23.1067961,15.1388361 C23.1067961,17.1578028 22.0678538,18.8448444 20.578246,19.2487357 C20.4855593,19.2991609 20.3857792,19.326087 20.2883636,19.326087 C20.2614088,19.326087 17.605178,18.965767 17.605178,15.3385787 C17.605178,13.2584163 18.5779155,11.0671226 19.9180897,10.1281366 C19.977674,10.0845653 20.1029902,10.0096618 20.251951,10.0096618 Z M20.0514612,11.9371981 C19.5016978,12.912591 19.223301,13.917137 19.223301,14.9261301 C19.223301,16.2167717 19.7655655,17.0780229 20.4146894,18.0410628 C20.9189907,17.3759772 21.1650485,16.6347972 21.1650485,15.7799695 C21.1650485,14.5298459 20.642,13.2001689 20.0514612,11.9371981 Z M31.0182194,13.5434783 C31.9402227,13.5434783 32.4919094,16.2189244 32.4919094,16.2459248 C32.4919094,16.5082139 32.2485043,16.7560386 31.9908927,16.7560386 C31.8663488,16.7560386 31.7545908,16.6967343 31.6769285,16.5901793 C31.121927,15.8245263 30.9055143,15.3669667 30.8018067,15.1466245 C30.790915,15.1244456 30.7804969,15.1017846 30.7705523,15.0815343 C30.7553987,15.0945524 30.739298,15.1090168 30.7208295,15.1249278 C30.4575353,15.3520201 29.9678838,15.7748649 29.6193504,15.7748649 C29.442716,15.7748649 29.2556634,15.6562562 29.2556634,15.3958956 C29.2556634,14.7989949 30.2434903,13.5434783 31.0182194,13.5434783 Z M10.3457327,12.5797101 C11.141153,12.5797101 11.7799353,14.05981 11.7799353,14.2469215 C11.7799353,14.548219 11.520283,14.8332042 11.2460488,14.8332042 C11.043313,14.8332042 10.4788515,14.512236 10.1472304,14.2469215 C9.70271694,15.2453292 9.2553812,15.7922705 8.8800143,15.7922705 C8.6848047,15.7922705 8.54368932,15.634905 8.54368932,15.4180475 C8.54368932,15.1949531 9.31135697,12.5797101 10.3457327,12.5797101 Z M2.95572777,10.9246104 C4.21246419,11.9801584 3.07007698,14 1.60673862,14 C0.83225754,14 0.236205411,13.3823625 0.127380323,12.6139324 C-0.513417146,11.6835811 1.39295533,9.60976584 2.95572777,10.9246104 Z M39.4605821,10.9246104 C40.7173186,11.9801584 39.5749313,14 38.111593,14 C37.3371119,14 36.7410598,13.3823625 36.6322347,12.6139324 C35.9914372,11.6835811 37.8978097,9.60976584 39.4605821,10.9246104 Z M22.1933975,0.566147157 C23.8690461,1.97354457 22.3458632,4.66666667 20.3947453,4.66666667 C19.3621039,4.66666667 18.5673677,3.84314999 18.4222676,2.81857655 C17.567871,1.57810819 20.109701,-1.18697888 22.1933975,0.566147157 Z" id="形状结合备份-6" fill-rule="nonzero"></path>
                <path d="M14.5305167,29.1456311 C15.8205638,29.4004854 17.5184215,30.0072816 17.6356096,30.2621359 C17.0515801,30.2014563 16.4486424,30.1771845 15.9994624,30.1771845 C11.4577533,30.1771845 7.61119297,33.6116505 8.09288909,36.5121359 C8.30249745,37.7742718 9.30163074,38.381068 10.9486242,38.381068 C12.5706631,38.381068 14.6618502,37.75 16.1266829,36.8033981 C18.2237297,35.4563107 19.3022575,33.2354369 18.9737367,31.2572816 C18.8427315,30.4684466 18.6526955,30.2257282 18.5745701,30.0558252 C19.4303143,30.25 20.7243923,30.5291262 20.9541553,31.9126214 C21.3310472,34.1820388 19.3440821,36.342233 16.467401,37.6529126 C14.6121279,38.5024272 12.2991352,39 10.2279162,39 C7.18347378,39 5.35028872,38.0291262 5.04595351,36.1966019 C4.5521646,33.223301 8.09303858,29 13.0090644,29 C13.5331078,29 13.9883342,29.0364078 14.5305167,29.1456311 Z" id="OB备份" fill-rule="nonzero"></path>
                <path d="M32.9135865,29 C33.4978696,29 33.9763112,29.0869557 34.3489254,29.2608696 C34.7215397,29.4347835 34.9349311,29.6739115 34.9891062,29.9782609 C35.0502467,30.3217408 34.8540279,30.7076066 34.4004439,31.1358696 C33.9468599,31.5641326 33.2701188,32.0043456 32.3702003,32.4565217 C31.3980222,32.9478285 30.1971846,33.5652174 30.205673,33.5652174 C31.2752082,33.5652174 32.1763851,33.7043464 32.9092307,33.9826087 C33.6420763,34.260871 34.0479635,34.6217369 34.1269043,35.0652174 C34.2058452,35.5086979 33.9914868,35.94565 33.4838227,36.376087 C32.9761586,36.8065239 32.2348508,37.1760854 31.2598771,37.4847826 C30.1821606,37.8282626 28.8857344,38 27.3705596,38 C26.1029623,38 25.1873969,37.8913054 24.623836,37.673913 L25.2774136,37.2565217 C25.6206265,37.4043486 26.0382209,37.5249995 26.5302094,37.6184783 C27.0221978,37.711957 27.5207137,37.7586957 28.025772,37.7586957 C28.9170513,37.7586957 29.7253345,37.6402186 30.4506459,37.4032609 C31.1759572,37.1663032 31.7338314,36.8510889 32.1242851,36.4576087 C32.5147387,36.0641285 32.6701059,35.6434805 32.5903911,35.1956522 C32.5400857,34.9130421 32.38058,34.6706532 32.1118693,34.4684783 C31.8431587,34.2663033 31.4860244,34.1097832 31.0404557,33.998913 C30.5948871,33.8880429 30.0849204,33.8326087 29.5105404,33.8326087 C29.2332535,33.8326087 28.9053741,33.8543476 28.5268923,33.8978261 L28.6185546,33.5782609 C29.4604604,33.3565206 30.2711323,33.0706539 31.0505948,32.7206522 C31.8300573,32.3706504 32.4729159,32.0043497 32.9791901,31.6217391 C33.6519533,31.1173888 33.9511817,30.6565238 33.8768845,30.2391304 C33.8319965,29.9869553 33.6449893,29.7847834 33.3158571,29.6326087 C32.9867249,29.480434 32.5745874,29.4043478 32.0794322,29.4043478 C31.1881529,29.4043478 30.0846843,29.6586931 28.7689934,30.1673913 C27.8710806,30.519567 27.1677578,30.8521723 26.6590039,31.1652174 L26.6353361,31.2826087 C26.5612448,31.7565241 26.4274684,32.2706494 26.2340029,32.825 C26.0405374,33.3793506 25.7926875,33.9619535 25.4904458,34.5728261 C25.1882042,35.1836987 24.8785753,35.7391279 24.56155,36.2391304 L24.4683887,36.3816355 C24.1258779,36.8926124 23.7732548,37.2766291 23.4105104,37.5336957 C23.0147892,37.8141318 22.5990665,37.9543478 22.16333,37.9543478 C21.4899189,37.9543478 21.1091051,37.7065242 21.0208772,37.2108696 C21.0031504,37.1112825 20.9967124,37.0031066 21.0015634,36.8863415 C21.0962524,37.0288569 21.2738012,37.1 21.5339556,37.1 C21.7852912,37.0957895 22.01411,37.0294743 22.2204188,36.9010526 C22.4267276,36.7726309 22.6736486,36.5505279 22.9611893,36.2347368 L22.9999608,36.1917104 C23.1175738,36.059868 23.2468723,35.9031585 23.3878585,35.7215793 L23.4835809,35.5968421 C23.6784887,35.3399987 23.8550279,35.0926328 24.013204,34.8547368 L24.0565878,34.7888384 C24.1729311,34.6103952 24.2944991,34.4102399 24.4212938,34.1883693 L24.5173699,34.0178947 C24.6730641,33.7378933 24.7924544,33.5126977 24.8755435,33.3423028 L24.9532473,33.1792996 C25.2288049,32.5930974 25.4071789,32.100002 25.4883743,31.7 C24.6872374,32.0915809 23.9387162,32.5694709 23.2427881,33.1336842 C23.0439516,33.294888 22.8576624,33.4569504 22.6839202,33.6198718 L22.7428611,33.55325 C23.4446034,32.7983815 24.2902701,32.1458526 25.2798736,31.5956522 L25.3008972,31.4634055 C25.334754,31.2363523 25.3626986,30.9760884 25.3847316,30.6826087 L25.4040769,30.290579 C25.4144132,30.0519319 25.4196287,29.8586964 25.4197233,29.7108696 L26.8940225,29.3978261 L26.8796419,29.5673913 L26.862833,29.8902174 C26.8581184,29.9750004 26.8501147,30.0413041 26.8388218,30.0891304 L26.7399204,30.6949187 C26.735677,30.7184845 26.7304378,30.7469898 26.7242027,30.7804348 C27.4819241,30.4195634 28.2445107,30.1000014 29.0119852,29.8217391 C29.7794597,29.5434769 30.4829445,29.3369572 31.1224606,29.2021739 C31.7619767,29.0673906 32.3590127,29 32.9135865,29 Z" id="B" stroke="#597EF7" stroke-width="0.66" fill-rule="nonzero"></path>
                <g id="ob/quanzhan" transform="translate(45.000000, 10.000000)">
                    <g transform="translate(0.000000, -0.000000)">
                        <path d="M57.2912667,1.71773333 C56.8754333,1.7454 56.4641,1.81923333 56.0684333,1.93706667 C55.6762667,2.05423333 55.2756,2.2109 54.8777667,2.40306667 L54.7834333,2.44856667 L54.7834333,3.9569 L59.5171,3.9569 L59.5171,1.71723333 L57.2967667,1.71723333 L57.2912667,1.71773333 Z M53.3886,5.6514 C52.8751,5.6514 52.4522667,5.48123333 52.0961,5.1314 C51.7406,4.78223333 51.5679333,4.3634 51.5679333,3.85106667 L51.5679333,1.82323333 C51.5679333,1.31073333 51.7406,0.8919 52.0961,0.542733333 C52.4522667,0.1929 52.8751,0.0227333333 53.3886,0.0227333333 L54.7834333,0.0227333333 L54.7834333,0.693566667 L55.0246,0.573066667 C55.3912667,0.389733333 55.7689333,0.247233333 56.1477667,0.1494 C56.4784333,0.0637333333 56.8241,0.0204 57.1754333,0.0204 C57.2226,0.0204 57.2697667,0.0210666667 57.3172667,0.0227333333 L60.9322667,0.0227333333 C61.4452667,0.0227333333 61.8642667,0.192566667 62.2136,0.541733333 C62.5629333,0.8909 62.7326,1.31023333 62.7326,1.82323333 L62.7326,3.85106667 C62.7326,4.36406667 62.5629333,4.78323333 62.2136,5.1324 C61.8642667,5.48156667 61.4451,5.6514 60.9322667,5.6514 L53.3886,5.6514 Z M17.2062667,6.99323333 C17.4114333,6.33106667 17.5722667,5.7504 17.6849333,5.26523333 C17.8064333,4.74173333 17.9161,4.23906667 18.0104333,3.77106667 L18.0507667,3.5714 L14.2582667,3.5714 L14.2114333,3.6609 C14.1039333,3.86656667 13.9931,4.07206667 13.8789333,4.27773333 C13.7664333,4.48023333 13.6351,4.70023333 13.4884333,4.9314 L13.4202667,5.0389 L13.2691,5.2564 C13.0409333,5.58506667 12.7931,5.9279 12.5324333,6.27556667 C12.2994333,6.5864 12.0442667,6.90956667 11.7729333,7.23806667 L10.3529333,6.26656667 C10.5842667,5.77756667 10.7864333,5.32473333 10.9542667,4.91873333 C11.1372667,4.4764 11.2952667,4.0664 11.4239333,3.7004 C11.5529333,3.3329 11.6599333,2.9914 11.7419333,2.6849 C11.8234333,2.3804 11.8981,2.08956667 11.9659333,1.81273333 L11.9707667,1.79323333 L11.9707667,1.75173333 L11.9861,1.68873333 C12.0542667,1.41106667 12.1129333,1.1399 12.1606,0.883066667 C12.1997667,0.672066667 12.2466,0.445733333 12.3002667,0.208733333 L15.4091,0.358066667 L15.2917667,0.867066667 C15.2387667,1.0969 15.1716,1.34356667 15.0922667,1.59973333 L15.0252667,1.81573333 L19.1651,1.81573333 C19.4047667,1.81573333 19.6224333,1.8709 19.8122667,1.97973333 C20.0072667,2.09173333 20.1709333,2.23623333 20.2982667,2.40956667 C20.4256,2.58273333 20.5149333,2.78406667 20.5637667,3.00823333 C20.6114333,3.22706667 20.5989333,3.4559 20.5269333,3.68873333 C20.4091,3.98106667 20.2987667,4.27973333 20.2036,4.56423333 C20.1106,4.84206667 19.9996,5.1299 19.8741,5.41973333 C19.7476,5.7119 19.5982667,6.03706667 19.4306,6.3859 C19.2784333,6.7024 19.0879333,7.0544 18.8634333,7.4334 L17.2062667,6.99323333 Z M66.6504333,14.6774 C66.1592667,14.6774 65.6079333,14.4244 65.0101,13.9250667 C65.4796,13.4909 65.8941,13.0999 66.2446,12.7617333 C66.6307667,12.3890667 66.9954333,12.0109 67.3282667,11.6374 C67.6592667,11.2655667 68.0024333,10.8574 68.3479333,10.4237333 C68.6714333,10.0177333 69.0507667,9.52773333 69.4757667,8.96623333 L72.3434333,10.2995667 C72.1046,10.5892333 71.8259333,10.9049 71.5126,11.2404 C71.1402667,11.6394 70.6976,12.0617333 70.1971,12.4955667 C69.6967667,12.9292333 69.1154333,13.3684 68.4694333,13.8010667 C68.3682667,13.8690667 68.3289333,13.8989 68.2981,13.9224 C68.2311,13.9734 68.2084333,13.9905667 67.3796,14.4747333 C67.1492667,14.6092333 66.9041,14.6774 66.6504333,14.6774 L66.6504333,14.6774 Z M81.9817667,15.2852333 C81.5259333,14.7102333 80.1989333,13.0477333 79.1939333,11.7887333 C78.7139333,11.1874 78.3066,10.6769 78.1004333,10.4184 L79.8052667,9.4694 C80.3484333,9.84973333 82.0584333,11.1220667 82.4959333,11.4897333 C82.6156,11.5902333 82.7332667,11.6917333 82.8499333,11.7920667 L83.0756,11.9857333 C83.3887667,12.2530667 83.4442667,13.0445667 81.9817667,15.2852333 L81.9817667,15.2852333 Z M28.3292667,3.0759 C27.9502667,3.0759 27.5731,3.1294 27.2081,3.23456667 C26.8461,3.33906667 26.4862667,3.49073333 26.1387667,3.6854 L26.0536,3.73306667 L26.0536,4.8289 L37.6617667,4.8289 L37.6617667,3.0759 L28.3292667,3.0759 Z M22.7889333,15.3242333 L22.7889333,14.4672333 C22.7889333,14.0055667 23.1646,13.6297333 23.6264333,13.6297333 L30.0371,13.6297333 L30.0371,10.4167333 L24.3387667,10.4167333 L24.3387667,8.70206667 L30.0371,8.70206667 L30.0371,6.5234 L23.9534333,6.5234 L23.9534333,5.3879 L22.8381,5.3879 L22.8381,3.18173333 C22.8381,2.66823333 23.0082667,2.2454 23.3581,1.88923333 C23.7072667,1.5339 24.1259333,1.36106667 24.6384333,1.36106667 L26.0536,1.36106667 L26.0536,2.01406667 L26.2959333,1.8904 C26.9336,1.56523333 27.6196,1.38706667 28.3352667,1.36106667 L30.7654333,1.36106667 L30.2382667,0.0430666667 L33.4279333,0.0430666667 L33.9551,1.36106667 L39.0767667,1.36106667 C39.5892667,1.36106667 40.0081,1.5339 40.3572667,1.88923333 C40.7071,2.2454 40.8772667,2.66823333 40.8772667,3.18173333 L40.8772667,5.3879 L39.8836,5.3879 L39.8836,6.5234 L33.2524333,6.5234 L33.2524333,8.70206667 L39.7414333,8.70206667 L39.7414333,10.4167333 L33.2524333,10.4167333 L33.2524333,13.6297333 L36.3767667,13.6297333 L35.1939333,12.3559 C34.9804333,12.1259 34.7687667,11.8957333 34.5596,11.6657333 L36.2027667,10.8092333 C36.4161,10.9062333 36.6292667,11.0124 36.8376,11.1254 C37.0731,11.2534 37.3324333,11.3980667 37.6151,11.5597333 C37.8936,11.7187333 38.2044333,11.9112333 38.5389333,12.1319 C38.8179333,12.3162333 39.1407667,12.5255667 39.5007667,12.7559 L38.1771,13.6297333 L41.4044333,13.6297333 L41.4044333,15.3242333 L22.7889333,15.3242333 Z M74.5679333,15.3254 C74.3396,15.3254 74.0906,15.3149 73.8274333,15.2944 C73.1332667,15.2402333 72.2601,15.1094 71.2326,14.9057333 C70.7712667,14.7555667 70.6132667,14.0962333 70.7621,12.9444 C71.2126,13.0170667 71.6114333,13.0957333 71.9496,13.1787333 C72.3421,13.2752333 72.6787667,13.3345667 72.9501,13.3554 C73.0011,13.3594 73.0499333,13.3612333 73.0964333,13.3612333 C73.3292667,13.3612333 73.5154333,13.3110667 73.6497667,13.2119 C73.8249333,13.0829 73.9101,12.8532333 73.9101,12.5100667 L73.9101,8.55123333 L68.0857667,8.55123333 C67.5726,8.55123333 67.1536,8.3814 66.8044333,8.03223333 C66.4551,7.68306667 66.2854333,7.2639 66.2854333,6.7509 L66.2854333,2.3504 C66.2854333,2.10356667 66.3322667,1.8659 66.4246,1.64373333 C66.5169333,1.42223333 66.6482667,1.22523333 66.8146,1.0589 C66.9811,0.8924 67.1749333,0.761066667 67.3911,0.668233333 C67.6056,0.576233333 67.8394333,0.529733333 68.0857667,0.529733333 L69.5009333,0.529733333 L69.5009333,1.20056667 L69.7421,1.08006667 C70.1074333,0.897233333 70.4812667,0.758233333 70.8529333,0.6669 C71.2236,0.575733333 71.6229333,0.529733333 72.0401,0.529733333 L79.3404333,0.529733333 C79.6272667,0.529733333 79.9522667,0.5159 80.3062667,0.488733333 C80.6584333,0.461566667 81.0197667,0.423733333 81.3799333,0.376233333 C81.7431,0.328233333 82.0937667,0.262233333 82.4224333,0.1799 C82.5797667,0.140733333 82.7624333,0.0804 82.9674333,-0.0001 C82.7409333,1.40106667 82.1719333,2.09273333 81.2327667,2.11273333 C81.0809333,2.10873333 80.8569333,2.10673333 80.5682667,2.10673333 C79.1961,2.10673333 76.3119333,2.15306667 71.9961,2.24456667 C71.6041,2.2724 71.2077667,2.3279 70.8099333,2.41006667 C70.3989333,2.49523333 69.9839333,2.67373333 69.5762667,2.94106667 L69.5009333,2.9904 L69.5009333,6.85673333 L73.9101,6.85673333 L73.9101,3.55123333 L77.1256,3.55123333 L77.1256,6.85673333 L83.9999333,6.85673333 L83.9999333,8.55123333 L77.1256,8.55123333 L77.1256,12.5910667 C77.1256,13.2707333 77.0439333,13.8345667 76.8827667,14.2665667 C76.7301,14.6755667 76.4271,14.9585667 75.9571,15.1317333 C75.6082667,15.2602333 75.1411,15.3254 74.5679333,15.3254 L74.5679333,15.3254 Z M52.4949333,15.3674 C51.9866,15.3674 51.4507667,14.9210667 50.9002667,14.0395667 C51.1206,13.9635667 51.3626,13.8814 51.6264333,13.7934 C51.9766,13.6767333 52.3354333,13.5270667 52.6926,13.3485667 C53.0509333,13.1694 53.4036,12.9527333 53.7407667,12.7050667 C54.0832667,12.4535667 54.3914333,12.1489 54.6567667,11.7997333 L54.8602667,11.5322333 L51.5072667,11.5322333 L51.5072667,9.8174 L55.4411,9.8174 L55.4411,9.65073333 C55.4411,9.58873333 55.4442667,9.52673333 55.4506,9.46456667 C55.4577667,9.39123333 55.4614333,9.3184 55.4614333,9.24506667 L55.4614333,8.20656667 L51.9331,8.20656667 L51.9331,6.51206667 L62.3879333,6.51206667 L62.3879333,8.20656667 L58.6767667,8.20656667 L58.6767667,9.24506667 C58.6767667,9.30723333 58.6739333,9.36906667 58.6676,9.43106667 C58.6604333,9.50473333 58.6566,9.57773333 58.6566,9.65073333 L58.6566,9.8174 L62.7936,9.8174 L62.7936,11.5322333 L58.4754333,11.5322333 L58.9336,11.8375667 C59.3941,12.1445667 59.9784333,12.3842333 60.6702667,12.5504 C61.3241,12.7074 62.9389333,12.8632333 64.0277667,12.9375667 C63.2286,14.4412333 62.3136,15.2032333 61.3056,15.2032333 C61.1314333,15.2032333 60.9509333,15.1807333 60.7689333,15.1364 C60.2594333,14.9639 59.8024333,14.7420667 59.4249333,14.4817333 C59.0476,14.2215667 58.7249333,13.9287333 58.4657667,13.6110667 C58.2049333,13.2919 57.9871,12.9517333 57.8176,12.5999 L57.7027667,12.3612333 L57.5372667,12.5680667 C56.9071,13.3557333 56.0772667,13.9987333 55.0709333,14.4785667 C54.3397667,14.8274 53.5612667,15.1134 52.7567667,15.3285667 C52.6671,15.3547333 52.5802667,15.3674 52.4949333,15.3674 L52.4949333,15.3674 Z M47.5506,4.37273333 C47.2961,5.25673333 47.0209333,6.11306667 46.7324333,6.91773333 C46.4456,7.7184 46.1447667,8.42823333 45.8384333,9.02723333 L45.7632667,9.17423333 L46.9536,9.79656667 L47.0287667,9.64306667 C47.3827667,8.92156667 47.6931,8.1249 47.9512667,7.2759 C48.2101,6.42423333 48.3964333,5.4689 48.5049333,4.43623333 L48.5242667,4.25206667 L47.5852667,4.25206667 L47.5506,4.37273333 Z M43.4759333,14.1742333 C43.8261,13.8554 44.1847667,13.5094 44.5444333,13.1440667 C44.9532667,12.7282333 45.3541,12.2549 45.7357667,11.7369 L45.8347667,11.6027333 L45.7006,11.5039 C45.4449333,11.3154 45.1942667,11.1224 44.9559333,10.9302333 C44.7122667,10.7342333 44.4554333,10.5277333 44.1849333,10.3114 C43.9292667,10.1044 43.7497667,9.83823333 43.6521,9.52056667 C43.5529333,9.1989 43.5529333,8.8859 43.6521,8.56406667 C44.0311,7.29106667 44.3532667,5.90673333 44.6099333,4.44773333 L44.6442667,4.25206667 L43.6594333,4.25206667 L43.6594333,2.5374 L44.9326,2.5374 L44.9551,2.39723333 C45.0229333,1.9769 45.0846,1.55556667 45.1382667,1.14506667 C45.1862667,0.779066667 45.2342667,0.4049 45.2822667,0.0227333333 L48.5464333,0.0227333333 C48.4877667,0.352233333 48.4211,0.696566667 48.3484333,1.04923333 C48.2609333,1.47256667 48.1626,1.91073333 48.0556,2.35173333 L48.0056,2.55756667 L49.5154333,2.55756667 C49.9746,2.55756667 50.3574333,2.7144 50.6864333,3.03706667 C51.0144333,3.35906667 51.1739333,3.74456667 51.1739333,4.2159 L51.1739333,4.41873333 C51.1076,5.4989 50.9054333,6.59773333 50.5729333,7.67506667 C50.2402667,8.75256667 49.7681,9.80456667 49.1697667,10.8019 L49.0821,10.9479 L49.2299333,11.0324 C49.6969333,11.2990667 50.1734333,11.5782333 50.6464333,11.8619 C51.0542667,12.1067333 51.4612667,12.3642333 51.8586,12.6290667 L49.4774333,14.7194 C49.1801,14.4452333 48.8961,14.1819 48.6254333,13.9294 C48.3194333,13.6437333 48.0064333,13.3685667 47.6951,13.1114 L47.5686,13.0070667 L47.4621,13.1317333 C47.0764333,13.5840667 46.6552667,14.0154 46.2104333,14.4137333 C45.7971,14.7839 45.3517667,15.1419 44.8851,15.4789 L43.4759333,14.1742333 Z M3.91426667,11.1040667 L4.22376667,10.5882333 C4.87176667,9.50806667 5.4736,8.44806667 6.01243333,7.43756667 L6.05576667,7.3564 L6.0101,7.27656667 C5.7386,6.8014 5.44643333,6.33073333 5.14193333,5.87723333 C4.8376,5.42406667 4.52993333,4.96773333 4.21893333,4.5079 L3.91426667,4.0574 L3.91426667,11.1040667 Z M10.5017667,14.6699 L10.5017667,15.3820667 L2.80043333,15.3820667 C2.3006,15.3820667 1.88443333,15.2117333 1.5281,14.8612333 C1.17276667,14.5115667 0.999933333,14.0869 0.999933333,13.5630667 L0.999933333,2.45573333 C0.999933333,1.93073333 1.17343333,1.4989 1.53026667,1.1349 C1.88626667,0.771733333 2.30826667,0.5954 2.8206,0.5954 L4.21543333,0.5954 L4.21543333,1.27573333 L4.45576667,1.1574 C5.2131,0.7844 5.9866,0.5954 6.7546,0.5954 L11.2114333,0.5954 L11.2114333,2.35106667 L6.73443333,2.35106667 C6.30693333,2.3799 5.89543333,2.45523333 5.4996,2.5754 C5.10776667,2.69456667 4.7071,2.85456667 4.30843333,3.0509 L4.21543333,3.09656667 L4.21543333,4.22006667 L5.85626667,3.5059 C6.09843333,3.7904 6.33543333,4.0689 6.5666,4.34223333 C6.81976667,4.6414 7.0706,4.9524 7.31193333,5.2669 L7.4786,5.48373333 L7.59493333,5.23623333 C7.75693333,4.89206667 7.9191,4.55106667 8.0811,4.21356667 C8.22343333,3.91723333 8.36226667,3.60906667 8.49476667,3.2954 L10.8699333,3.92823333 C10.5782667,4.48123333 10.2781,5.0289 9.9761,5.55856667 C9.63826667,6.1514 9.28693333,6.76473333 8.92193333,7.3989 L8.87193333,7.48573333 L8.92526667,7.57073333 C9.2606,8.10423333 9.60376667,8.6829 9.9451,9.29073333 C10.2674333,9.86456667 10.6036,10.4990667 10.9449333,11.1785667 L8.89293333,12.7800667 C8.70243333,12.3254 8.5051,11.8772333 8.3051,11.4454 C8.07543333,10.9490667 7.83576667,10.4532333 7.5931,9.97173333 L7.46176667,9.71173333 L7.3041,9.95656667 C6.9951,10.4362333 6.65526667,10.9387333 6.2941,11.4504 C5.95626667,11.9290667 5.6011,12.4280667 5.2286,12.9480667 L4.21543333,12.3374 L4.21543333,13.6677333 L10.5017667,13.6677333 L10.5017667,14.0954 L10.7874333,13.8040667 C11.4147667,13.1642333 11.9167667,12.5457333 12.2799333,11.9657333 C12.6434333,11.3850667 12.9254333,10.7989 13.1179333,10.2239 C13.3104333,9.64906667 13.4359333,9.04806667 13.4909333,8.43806667 C13.5451,7.83623333 13.5726,7.17356667 13.5726,6.46856667 L13.5726,5.18723333 L16.7881,5.18723333 L16.7881,7.66806667 C16.7881,8.33123333 16.8052667,8.9229 16.8392667,9.42723333 C16.8746,9.9549 17.0191,10.4324 17.2682667,10.8462333 C17.5174333,11.2602333 17.9077667,11.6339 18.4284333,11.9570667 C18.6056,12.0669 20.0966,12.9830667 21.1572667,13.3577333 C20.2292667,14.7302333 19.3866,15.4257333 18.6507667,15.4259 C18.4141,15.4259 18.1907667,15.3560667 17.9677667,15.2122333 C17.5446,14.9265667 17.1866,14.6225667 16.9064333,14.3102333 C16.6276,13.9992333 16.4079333,13.6784 16.2532667,13.3565667 C16.0972667,13.0317333 15.9787667,12.6924 15.9007667,12.3474 L15.8121,11.9554 L15.5972667,12.2952333 C15.2156,12.8990667 14.6939333,13.4920667 14.0466,14.0582333 C13.4186,14.6072333 12.5982667,15.1584 11.6069333,15.6970667 L10.5017667,14.6699 Z" id="Fill-1"></path>
                        <path d="M3.188,19.404 C3.93,19.404 4.525,19.649 4.959,20.153 C5.365,20.629 5.575,21.245 5.575,22.008 C5.575,22.764 5.365,23.373 4.959,23.849 C4.525,24.346 3.93,24.598 3.181,24.598 C2.432,24.598 1.844,24.346 1.41,23.849 C0.997,23.373 0.794,22.757 0.794,22.008 C0.794,21.252 0.997,20.636 1.41,20.16 C1.844,19.656 2.432,19.404 3.188,19.404 Z M3.188,19.915 C2.614,19.915 2.159,20.111 1.83,20.51 C1.522,20.888 1.368,21.385 1.368,22.008 C1.368,22.624 1.522,23.121 1.83,23.499 C2.152,23.891 2.607,24.087 3.181,24.087 C3.755,24.087 4.21,23.891 4.532,23.513 C4.84,23.135 5.001,22.638 5.001,22.008 C5.001,21.371 4.84,20.867 4.532,20.489 C4.21,20.104 3.762,19.915 3.188,19.915 Z M7.233,19.502 L9.466,19.502 C9.928,19.502 10.299,19.614 10.572,19.838 C10.838,20.062 10.971,20.37 10.971,20.762 C10.971,21.042 10.894,21.287 10.747,21.49 C10.593,21.672 10.39,21.805 10.138,21.889 C10.467,21.945 10.719,22.085 10.901,22.295 C11.083,22.505 11.181,22.771 11.181,23.107 C11.181,23.597 11.006,23.961 10.663,24.199 C10.369,24.395 9.963,24.5 9.452,24.5 L7.233,24.5 L7.233,19.502 Z M7.807,19.985 L7.807,21.686 L9.326,21.686 C9.676,21.686 9.942,21.609 10.124,21.469 C10.306,21.322 10.404,21.105 10.404,20.818 C10.404,20.538 10.313,20.328 10.131,20.188 C9.949,20.048 9.683,19.985 9.333,19.985 L7.807,19.985 Z M7.807,22.162 L7.807,24.017 L9.403,24.017 C9.753,24.017 10.026,23.947 10.236,23.821 C10.481,23.667 10.607,23.422 10.607,23.1 C10.607,22.778 10.495,22.54 10.285,22.386 C10.082,22.232 9.788,22.162 9.403,22.162 L7.807,22.162 Z M16.023,19.502 L19.565,19.502 L19.565,19.999 L16.597,19.999 L16.597,21.672 L19.397,21.672 L19.397,22.169 L16.597,22.169 L16.597,24.003 L19.684,24.003 L19.684,24.5 L16.023,24.5 L16.023,19.502 Z M21.342,19.502 L21.944,19.502 L24.772,23.569 L24.793,23.569 L24.793,19.502 L25.367,19.502 L25.367,24.5 L24.779,24.5 L21.937,20.391 L21.916,20.391 L21.916,24.5 L21.342,24.5 L21.342,19.502 Z M26.85,19.502 L30.945,19.502 L30.945,19.999 L29.181,19.999 L29.181,24.5 L28.614,24.5 L28.614,19.999 L26.85,19.999 L26.85,19.502 Z M32.428,19.502 L35.97,19.502 L35.97,19.999 L33.002,19.999 L33.002,21.672 L35.802,21.672 L35.802,22.169 L33.002,22.169 L33.002,24.003 L36.089,24.003 L36.089,24.5 L32.428,24.5 L32.428,19.502 Z M37.747,19.502 L39.903,19.502 C40.4,19.502 40.792,19.614 41.079,19.845 C41.373,20.083 41.527,20.433 41.527,20.895 C41.527,21.175 41.45,21.42 41.296,21.637 C41.128,21.861 40.904,22.001 40.617,22.071 L40.617,22.085 C41.093,22.19 41.359,22.491 41.415,22.995 L41.492,23.765 C41.52,24.073 41.611,24.318 41.758,24.5 L41.135,24.5 C41.023,24.332 40.953,24.115 40.932,23.835 L40.869,23.17 C40.841,22.876 40.736,22.659 40.554,22.533 C40.386,22.407 40.148,22.351 39.833,22.351 L38.321,22.351 L38.321,24.5 L37.747,24.5 L37.747,19.502 Z M38.321,19.999 L38.321,21.854 L39.833,21.854 C40.197,21.854 40.484,21.763 40.68,21.595 C40.855,21.434 40.946,21.21 40.946,20.916 C40.946,20.608 40.855,20.377 40.687,20.23 C40.505,20.076 40.218,19.999 39.833,19.999 L38.321,19.999 Z M42.954,19.502 L47.049,19.502 L47.049,19.999 L45.285,19.999 L45.285,24.5 L44.718,24.5 L44.718,19.999 L42.954,19.999 L42.954,19.502 Z M49.995,19.502 L50.66,19.502 L52.627,24.5 L52.004,24.5 L51.472,23.1 L49.176,23.1 L48.644,24.5 L48.028,24.5 L49.995,19.502 Z M49.358,22.617 L51.29,22.617 L50.345,20.118 L50.317,20.118 L49.358,22.617 Z M54.033,19.502 L54.6,19.502 L54.6,24.5 L54.033,24.5 L54.033,19.502 Z M56.51,19.502 L57.112,19.502 L59.94,23.569 L59.961,23.569 L59.961,19.502 L60.535,19.502 L60.535,24.5 L59.947,24.5 L57.105,20.391 L57.084,20.391 L57.084,24.5 L56.51,24.5 L56.51,19.502 Z M62.403,19.502 L63.117,19.502 L64.979,23.765 L65,23.765 L66.855,19.502 L67.569,19.502 L67.569,24.5 L66.995,24.5 L66.995,20.524 L66.974,20.524 L65.245,24.5 L64.727,24.5 L62.998,20.524 L62.977,20.524 L62.977,24.5 L62.403,24.5 L62.403,19.502 Z M69.437,19.502 L72.979,19.502 L72.979,19.999 L70.011,19.999 L70.011,21.672 L72.811,21.672 L72.811,22.169 L70.011,22.169 L70.011,24.003 L73.098,24.003 L73.098,24.5 L69.437,24.5 L69.437,19.502 Z M74.756,19.502 L75.358,19.502 L78.186,23.569 L78.207,23.569 L78.207,19.502 L78.781,19.502 L78.781,24.5 L78.193,24.5 L75.351,20.391 L75.33,20.391 L75.33,24.5 L74.756,24.5 L74.756,19.502 Z M80.264,19.502 L84.359,19.502 L84.359,19.999 L82.595,19.999 L82.595,24.5 L82.028,24.5 L82.028,19.999 L80.264,19.999 L80.264,19.502 Z" id="OBENTERTAINMENT" fill-rule="nonzero"></path>
                    </g>
                </g>
            </g>
        </g>
    </g>
</svg>