<svg xmlns="http://www.w3.org/2000/svg" width="18" height="18" viewBox="0 0 18 18">
    <g fill="none" fill-rule="evenodd">
        <g>
            <g>
                <path fill="#C9D0D7" fill-rule="nonzero" d="M16.572 6.85l-.029.378c-.05.65-.228 1.266-.515 1.85-.464.942-1.049 1.805-1.735 2.601-.744.863-1.552 1.663-2.392 2.43-.805.738-1.64 1.44-2.495 2.12-.211.167-.443.262-.717.234-.185-.019-.347-.093-.49-.207-1.527-1.209-2.99-2.488-4.326-3.906-.768-.816-1.46-1.69-2.016-2.666-.328-.576-.607-1.171-.737-1.825-.052-.26-.073-.527-.108-.79L1 6.985v-.441c.005-.03.012-.06.015-.09.012-.126.018-.253.036-.378.131-.914.466-1.742 1.054-2.458.765-.933 1.737-1.495 2.952-1.601.626-.055 1.23.04 1.812.272.664.264 1.223.674 1.69 1.214.075.088.147.179.226.275.023-.028.042-.05.06-.074.385-.5.85-.906 1.406-1.206.816-.44 1.684-.595 2.598-.441 1.065.18 1.926.718 2.604 1.549.65.795 1.002 1.713 1.09 2.734.012.124.02.248.029.371v.137zm-.97-.063c-.011-.147-.018-.294-.034-.44-.089-.818-.39-1.548-.945-2.159-.742-.818-1.662-1.213-2.774-1.103-.764.076-1.408.415-1.952.95-.369.363-.634.796-.836 1.27-.052.123-.14.2-.277.2-.137.001-.225-.077-.278-.2-.17-.396-.38-.768-.669-1.091-.63-.704-1.406-1.113-2.36-1.145-.882-.03-1.653.266-2.285.87C2.14 4.944 1.8 6.186 2.06 7.602c.099.538.342 1.021.608 1.494.536.957 1.22 1.802 1.973 2.593 1.264 1.326 2.641 2.526 4.071 3.668.054.043.086.044.14 0 .804-.641 1.591-1.303 2.352-1.995.829-.754 1.629-1.537 2.362-2.386.663-.769 1.229-1.601 1.659-2.523.245-.527.367-1.084.376-1.666z" transform="translate(-548 -1410) translate(548 1410)"/>
                <path d="M0 0H18V18H0z" transform="translate(-548 -1410) translate(548 1410)"/>
            </g>
        </g>
    </g>
</svg>
