<svg xmlns="http://www.w3.org/2000/svg" width="16" height="16" viewBox="0 0 16 16">
    <defs>
        <linearGradient id="prefix__a" x1="1.122%" x2="100%" y1="88.219%" y2="88.219%">
            <stop offset="0%" stop-color="#8CA7FF"/>
            <stop offset="100%" stop-color="#597EF7"/>
        </linearGradient>
    </defs>
    <path fill="url(#prefix__a)" fill-rule="evenodd" d="M11.961 12.272c0-.278-.223-.502-.5-.502-.095 0-.184.027-.26.074l-.007-.007c-.865.723-1.98 1.16-3.196 1.16-2.761 0-5-2.248-5-5.019h.995L2.498 6.063 1 7.978h1C2 11.304 4.686 14 8 14c1.407 0 2.7-.486 3.724-1.3.142-.09.237-.248.237-.428zM4.037 3.73c0 .277.224.502.5.502.095 0 .184-.027.261-.074l.006.006c.867-.724 1.981-1.159 3.197-1.159 2.76 0 5 2.247 5 5.019h-.996L13.5 9.938 15 8.022h-1C14 4.696 11.314 2 8 2c-1.407 0-2.7.486-3.724 1.3-.144.091-.239.25-.239.43z"/>
</svg>
