<svg xmlns="http://www.w3.org/2000/svg" width="32" height="32" viewBox="0 0 32 32">
    <defs>
        <linearGradient id="18y3vffxsa" x1="50%" x2="50%" y1="0%" y2="100%">
            <stop offset="0%" stop-color="#96AEFF"/>
            <stop offset="13.12%" stop-color="#93ACFC"/>
            <stop offset="32.312%" stop-color="#7797FE"/>
            <stop offset="60.548%" stop-color="#6388FE"/>
            <stop offset="100%" stop-color="#597EF7"/>
        </linearGradient>
    </defs>
    <g fill="none" fill-rule="evenodd">
        <g fill="url(#18y3vffxsa)" fill-rule="nonzero" transform="translate(-804.000000, -2278.000000)">
            <g>
                <g>
                    <path d="M13.47 0c.433-.007.81.3.902.732.093.492-.229.928-.684 1.04l-.107.02V3.23h1.256c.325 0 .636.137.857.38.22.244.33.572.301.904-.167 2.036-1.077 3.935-2.55 5.32-.161.15-.328.296-.5.435-.772 1.495-2.15 2.559-3.76 2.915l-.255.05V15.2h.785c.533 0 .976.403 1.05.93l.01.115h.635c.601.019 1.084 1.064 1.142 1.194l.006.013V19H3.442v-1.567c0-.316.123-.618.341-.841.188-.191.432-.31.693-.34l.131-.007h.586c.02-.544.428-.982.947-1.039l.113-.006h.816v-1.966c-1.716-.295-3.2-1.39-4.015-2.96-.174-.14-.342-.285-.504-.439C1.154 8.523.263 6.748.032 4.831L0 4.511v-.095c0-.315.123-.617.34-.839.188-.19.432-.31.692-.34l.13-.007h1.256V1.793c-.246-.025-.472-.153-.622-.355-.15-.2-.21-.457-.168-.706.084-.397.408-.687.795-.727L2.53 0h10.94zM8.038 3.78c-.086-.029-.18-.022-.26.02-.072.036-.128.097-.159.171l-.696 1.593c-.05.115-.156.194-.279.205l-1.472.14c-.142.013-.26.115-.297.255-.038.14.014.289.13.374l1.134.831c.125.09.176.253.126.4l-.532 1.476c-.049.135-.011.286.095.381.106.096.258.114.383.048l1.57-.839c.097-.05.213-.05.312 0l1.66.856c.127.065.279.044.384-.053.104-.096.14-.249.09-.383L9.673 7.78c-.057-.151-.005-.322.126-.414l1.172-.829c.116-.084.17-.233.133-.374-.036-.14-.155-.243-.297-.257l-1.496-.14c-.119-.009-.225-.08-.279-.19l-.797-1.621c-.04-.083-.112-.146-.198-.175zm6.802.59h-1.258V7.6c0 .095-.002.19-.007.285.726-1.033 1.163-2.248 1.265-3.515zm-12.422 0H1.166c.102 1.261.537 2.47 1.26 3.498l-.007-.143V4.37z"
                          transform="translate(804.000000, 2278.000000) translate(7.857143, 6.857143)"/>
                </g>
            </g>
        </g>
    </g>
</svg>
