<svg xmlns="http://www.w3.org/2000/svg" xmlns:xlink="http://www.w3.org/1999/xlink" width="18" height="18" viewBox="0 0 18 18">
    <defs>
        <path id="n6zuq1ywoa" d="M8 0c4.418 0 8 3.582 8 8s-3.582 8-8 8-8-3.582-8-8 3.582-8 8-8zm0 4c-.552 0-1 .448-1 1v2H5c-.552 0-1 .448-1 1s.448 1 1 1h2v2c0 .552.448 1 1 1s1-.448 1-1V9h2c.552 0 1-.448 1-1s-.448-1-1-1H9V5c0-.552-.448-1-1-1z"/>
    </defs>
    <g fill="none" fill-rule="evenodd" transform="translate(1 1)">
        <mask id="zyuw0rehwb" fill="#fff">
            <use xlink:href="#n6zuq1ywoa"/>
        </mask>
        <use fill="#8590A6" xlink:href="#n6zuq1ywoa"/>
        <g mask="url(#zyuw0rehwb)">
            <path fill="#597EF7" d="M0 0H20V20H0z" transform="matrix(-1 0 0 1 19 -1)"/>
        </g>
    </g>
</svg>
