<svg xmlns="http://www.w3.org/2000/svg" xmlns:xlink="http://www.w3.org/1999/xlink" width="18" height="18" viewBox="0 0 18 18">
    <defs>
        <linearGradient id="prefix__b" x1="26.748%" x2="83.257%" y1="0%" y2="82.277%">
            <stop offset="0%" stop-color="#70D1FF"/>
            <stop offset="100%" stop-color="#3678FE"/>
        </linearGradient>
        <linearGradient id="prefix__f" x1="1.122%" x2="100%" y1="88.219%" y2="88.219%">
            <stop offset="0%" stop-color="#5FABFF"/>
            <stop offset="100%" stop-color="#3678FE"/>
        </linearGradient>
        <path id="prefix__a" d="M7 0c3.866 0 7 3.134 7 7s-3.134 7-7 7-7-3.134-7-7 3.134-7 7-7zm.02 8.959c-.563 0-1.02.457-1.02 1.02C6 10.543 6.457 11 7.02 11l.112-.006c.511-.055.91-.489.91-1.015 0-.563-.457-1.02-1.021-1.02zM7.02 3c-.554 0-1.007.443-1.02.998V7.06l.01.117c.068.499.496.88 1.01.88.556 0 1.009-.442 1.022-.997V3.998l-.01-.117C7.964 3.382 7.536 3 7.021 3z"/>
        <path id="prefix__e" d="M0 0H14V14H0z"/>
        <filter id="prefix__d" width="600%" height="600%" x="-250%" y="-178.6%" filterUnits="objectBoundingBox">
            <feOffset dy="10" in="SourceAlpha" result="shadowOffsetOuter1"/>
            <feGaussianBlur in="shadowOffsetOuter1" result="shadowBlurOuter1" stdDeviation="10"/>
            <feColorMatrix in="shadowBlurOuter1" values="0 0 0 0 0.235294118 0 0 0 0 0.556862745 0 0 0 0 0.996078431 0 0 0 0.2 0"/>
        </filter>
    </defs>
    <g fill="none" fill-rule="evenodd" transform="translate(2 2)">
        <mask id="prefix__c" fill="#fff">
            <use xlink:href="#prefix__a"/>
        </mask>
        <use fill="url(#prefix__b)" xlink:href="#prefix__a"/>
        <g mask="url(#prefix__c)">
            <use fill="#000" filter="url(#prefix__d)" xlink:href="#prefix__e"/>
            <use fill="url(#prefix__f)" xlink:href="#prefix__e"/>
        </g>
    </g>
</svg>
