<svg xmlns="http://www.w3.org/2000/svg" xmlns:xlink="http://www.w3.org/1999/xlink" width="40" height="40" viewBox="0 0 40 40">
    <defs>
        <filter id="ftt2i5y3ic" width="276.5%" height="330.8%" x="-88.2%" y="-115.4%" filterUnits="objectBoundingBox">
            <feGaussianBlur in="SourceGraphic" stdDeviation="10"/>
        </filter>
        <filter id="46rgpo97pe" width="284.6%" height="284.6%" x="-92.3%" y="-92.3%" filterUnits="objectBoundingBox">
            <feGaussianBlur in="SourceGraphic" stdDeviation="4"/>
        </filter>
        <linearGradient id="okwp20a80b" x1="1.122%" x2="100%" y1="88.219%" y2="88.219%">
            <stop offset="0%" stop-color="#8CA7FF"/>
            <stop offset="100%" stop-color="#597EF7"/>
        </linearGradient>
        <circle id="ve896myeaa" cx="20" cy="20" r="20"/>
    </defs>
    <g fill="none" fill-rule="evenodd">
        <mask id="v1w522q5rd" fill="#fff">
            <use xlink:href="#ve896myeaa"/>
        </mask>
        <use fill="url(#okwp20a80b)" xlink:href="#ve896myeaa"/>
        <ellipse cx="20" cy="37" fill="#8CA9FF" filter="url(#ftt2i5y3ic)" mask="url(#v1w522q5rd)" rx="17" ry="13"/>
        <circle cx="20.5" cy="41.5" r="6.5" fill="#95CBFF" filter="url(#46rgpo97pe)" mask="url(#v1w522q5rd)"/>
        <path fill="#FFF" fill-rule="nonzero" d="M25.6 17h-.9v-1.714C24.7 12.92 22.684 11 20.2 11s-4.5 1.92-4.5 4.286V17h-.9c-.994 0-1.8.767-1.8 1.714v8.572c0 .947.806 1.714 1.8 1.714h10.8c.994 0 1.8-.767 1.8-1.714v-8.572c0-.947-.806-1.714-1.8-1.714zm-5.4 7.714c-.995 0-1.8-.767-1.8-1.714s.805-1.714 1.8-1.714S22 22.053 22 23s-.805 1.714-1.8 1.714zM22.99 17h-5.58v-1.714c0-1.466 1.251-2.657 2.79-2.657 1.539 0 2.79 1.191 2.79 2.657V17z"/>
    </g>
</svg>
